<svg width="50" height="50" viewBox="0 0 50 50" fill="none" xmlns="http://www.w3.org/2000/svg">
<g filter="url(#filter0_d)">
<circle cx="24" cy="24" r="22" fill="#2945FF"/>
</g>
<path d="M23.5 13.375V12.25V13.375ZM23.5 34.75V33.625V34.75ZM33.625 23.5H34.75H33.625ZM12.25 23.5H13.375H12.25ZM31.375 15.625L32.5 14.5L31.375 15.625ZM14.5 32.5L15.625 31.375L14.5 32.5ZM14.5 14.5L15.625 15.625L14.5 14.5ZM31.375 31.375L32.5 32.5L31.375 31.375ZM30.25 23.5C30.25 25.2902 29.5388 27.0071 28.273 28.273C27.0071 29.5388 25.2902 30.25 23.5 30.25C21.7098 30.25 19.9929 29.5388 18.727 28.273C17.4612 27.0071 16.75 25.2902 16.75 23.5C16.75 21.7098 17.4612 19.9929 18.727 18.727C19.9929 17.4612 21.7098 16.75 23.5 16.75C25.2902 16.75 27.0071 17.4612 28.273 18.727C29.5388 19.9929 30.25 21.7098 30.25 23.5V23.5Z" stroke="white" stroke-width="2" stroke-linecap="round"/>
<defs>
<filter id="filter0_d" x="0" y="0" width="50" height="50" filterUnits="userSpaceOnUse" color-interpolation-filters="sRGB">
<feFlood flood-opacity="0" result="BackgroundImageFix"/>
<feColorMatrix in="SourceAlpha" type="matrix" values="0 0 0 0 0 0 0 0 0 0 0 0 0 0 0 0 0 0 127 0"/>
<feOffset dx="1" dy="1"/>
<feGaussianBlur stdDeviation="1.5"/>
<feColorMatrix type="matrix" values="0 0 0 0 0 0 0 0 0 0 0 0 0 0 0 0 0 0 0.9 0"/>
<feBlend mode="normal" in2="BackgroundImageFix" result="effect1_dropShadow"/>
<feBlend mode="normal" in="SourceGraphic" in2="effect1_dropShadow" result="shape"/>
</filter>
</defs>
</svg>
