<?xml version="1.0" encoding="utf-8"?>
<!-- Generator: Adobe Illustrator 25.0.1, SVG Export Plug-In . SVG Version: 6.00 Build 0)  -->
<svg version="1.1" id="Layer_1" xmlns="http://www.w3.org/2000/svg" xmlns:xlink="http://www.w3.org/1999/xlink" x="0px" y="0px"
	 viewBox="0 0 30 30" style="enable-background:new 0 0 30 30;" xml:space="preserve">
<style type="text/css">
	.st0{fill:#30365E;}
	.st1{fill:#FFFFFF;}
</style>
<g>
	<circle class="st0" cx="15" cy="15" r="15"/>
</g>
<path class="st1" d="M21.8,17.9c0.1-0.3-0.3-0.6-0.6-0.5c-0.7,0.3-1.4,0.4-2.1,0.4c-2.9,0-5.2-2.3-5.2-5.1c0-0.9,0.3-1.9,0.8-2.7
	c0.2-0.3,0-0.7-0.4-0.6c-2.7,0.7-4.8,3.1-4.8,6c0,3.4,2.8,6.2,6.4,6.2C18.6,21.8,20.8,20.2,21.8,17.9z"/>
<path class="st1" d="M18.1,9.6c-0.4-0.2-0.8,0.2-0.6,0.6l0.4,0.6c0.2,0.3,0.3,0.6,0.3,0.9c0,0.3-0.1,0.6-0.3,0.9l-0.4,0.6
	c-0.2,0.4,0.2,0.8,0.6,0.6l0.6-0.4c0.3-0.2,0.6-0.3,0.9-0.3c0.3,0,0.6,0.1,0.9,0.3l0.6,0.4c0.4,0.2,0.8-0.2,0.6-0.6l-0.4-0.6
	c-0.2-0.3-0.3-0.6-0.3-0.9c0-0.3,0.1-0.6,0.3-0.9l0.4-0.6c0.2-0.4-0.2-0.8-0.6-0.6L20.6,10c-0.3,0.2-0.6,0.3-0.9,0.3
	c-0.3,0-0.6-0.1-0.9-0.3L18.1,9.6L18.1,9.6z"/>
</svg>
