<?xml version="1.0" encoding="utf-8"?>
<!-- Generator: Adobe Illustrator 25.0.1, SVG Export Plug-In . SVG Version: 6.00 Build 0)  -->
<svg version="1.1" id="Layer_1" xmlns="http://www.w3.org/2000/svg" xmlns:xlink="http://www.w3.org/1999/xlink" x="0px" y="0px"
	 viewBox="0 0 1054 563" style="enable-background:new 0 0 1054 563;" xml:space="preserve">
<style type="text/css">
	.st0{fill-rule:evenodd;clip-rule:evenodd;fill:#FFFFFF;}
	.st1{fill-rule:evenodd;clip-rule:evenodd;}
	.st2{fill-rule:evenodd;clip-rule:evenodd;fill:#2945FF;}
	.st3{fill-rule:evenodd;clip-rule:evenodd;fill:#A1CAAC;}
	.st4{fill-rule:evenodd;clip-rule:evenodd;fill:#353333;}
</style>
<path class="st0" d="M284.7,13.9H46.3c-11.9,0-21.5,9.6-21.5,21.5v127.6v25.7v149.2h127.9h25.7h127.9V188.8v-25.7V35.5
	C306.2,23.6,296.6,13.9,284.7,13.9z"/>
<path class="st1" d="M25.3,337.4h280.4V35.5c0-11.6-9.4-21-21-21H46.3c-11.6,0-21,9.4-21,21V337.4z M306.8,338.5H24.2v-303
	c0-12.2,9.9-22.1,22.1-22.1h238.4c12.2,0,22.1,9.9,22.1,22.1V338.5z"/>
<path class="st0" d="M297.6,328.9H33.4c-13.2,0-23.9,0.4-23.9,0.8v4.6v0.9v4.6c0,0.4,10.7,0.8,23.9,0.8h117.9h28.4h117.9
	c13.2,0,23.9-0.4,23.9-0.8v-4.6v-0.9v-4.6C321.5,329.2,310.8,328.9,297.6,328.9z"/>
<path class="st1" d="M10,339.5c1.8,0.3,10.7,0.6,23.3,0.6h264.3c12.6,0,21.5-0.3,23.3-0.6V330c-1.8-0.3-10.7-0.6-23.3-0.6H33.4
	c-12.6,0-21.5,0.3-23.3,0.6V339.5z M297.6,341.2H33.4c-6.4,0-12.4-0.1-16.9-0.2c-2.2-0.1-3.9-0.2-5.1-0.2c-1.7-0.1-2.4-0.2-2.4-0.9
	v-10.2c0-0.6,0.7-0.7,2.4-0.9c1.2-0.1,2.9-0.2,5.1-0.2c4.5-0.1,10.5-0.2,16.9-0.2h264.3c6.4,0,12.4,0.1,16.9,0.2
	c2.2,0.1,3.9,0.2,5.1,0.2c1.7,0.1,2.4,0.2,2.4,0.9v10.2c0,0.6-0.7,0.7-2.4,0.9c-1.2,0.1-2.9,0.2-5.1,0.2
	C310,341.1,304,341.2,297.6,341.2z"/>
<path class="st1" d="M75,177.5h28.9v-25H75V177.5z M73.5,178.9h31.9v-28H73.5V178.9z"/>
<path class="st1" d="M105.4,177.5h28.9v-25h-28.9V177.5z M103.9,178.9h31.9v-28h-31.9V178.9z"/>
<path class="st1" d="M135.8,177.5h28.9v-25h-28.9V177.5z M134.3,178.9h31.9v-28h-31.9V178.9z"/>
<path class="st1" d="M166.2,177.5h28.9v-25h-28.9V177.5z M164.7,178.9h31.9v-28h-31.9V178.9z"/>
<path class="st1" d="M196.6,177.5h28.9v-25h-28.9V177.5z M195.2,178.9h31.9v-28h-31.9V178.9z"/>
<path class="st1" d="M227.1,177.5H256v-25h-28.9V177.5z M225.6,178.9h31.9v-28h-31.9V178.9z"/>
<path class="st1" d="M75,151h28.9v-25H75V151z M73.5,152.5h31.9v-28H73.5V152.5z"/>
<path class="st1" d="M105.4,151h28.9v-25h-28.9V151z M103.9,152.5h31.9v-28h-31.9V152.5z"/>
<path class="st1" d="M135.8,151h28.9v-25h-28.9V151z M134.3,152.5h31.9v-28h-31.9V152.5z"/>
<path class="st1" d="M166.2,151h28.9v-25h-28.9V151z M164.7,152.5h31.9v-28h-31.9V152.5z"/>
<path class="st1" d="M196.6,151h28.9v-25h-28.9V151z M195.2,152.5h31.9v-28h-31.9V152.5z"/>
<path class="st1" d="M227.1,151H256v-25h-28.9V151z M225.6,152.5h31.9v-28h-31.9V152.5z"/>
<path class="st1" d="M75,124.5h28.9v-25H75V124.5z M73.5,126h31.9V98H73.5V126z"/>
<path class="st1" d="M105.4,124.5h28.9v-25h-28.9V124.5z M103.9,126h31.9V98h-31.9V126z"/>
<path class="st1" d="M135.8,124.5h28.9v-25h-28.9V124.5z M134.3,126h31.9V98h-31.9V126z"/>
<path class="st1" d="M166.2,124.5h28.9v-25h-28.9V124.5z M164.7,126h31.9V98h-31.9V126z"/>
<path class="st1" d="M196.6,124.5h28.9v-25h-28.9V124.5z M195.2,126h31.9V98h-31.9V126z"/>
<path class="st1" d="M227.1,124.5H256v-25h-28.9V124.5z M225.6,126h31.9V98h-31.9V126z"/>
<path class="st1" d="M75,98h28.9V73H75V98z M73.5,99.5h31.9v-28H73.5V99.5z"/>
<path class="st1" d="M105.4,98h28.9V73h-28.9V98z M103.9,99.5h31.9v-28h-31.9V99.5z"/>
<path class="st1" d="M135.8,98h28.9V73h-28.9V98z M134.3,99.5h31.9v-28h-31.9V99.5z"/>
<path class="st1" d="M166.2,98h28.9V73h-28.9V98z M164.7,99.5h31.9v-28h-31.9V99.5z"/>
<path class="st1" d="M196.6,98h28.9V73h-28.9V98z M195.2,99.5h31.9v-28h-31.9V99.5z"/>
<path class="st1" d="M227.1,98H256V73h-28.9V98z M225.6,99.5h31.9v-28h-31.9V99.5z"/>
<path class="st1" d="M75,71.5h28.9v-25H75V71.5z M73.5,73h31.9V45H73.5V73z"/>
<path class="st1" d="M105.4,71.5h28.9v-25h-28.9V71.5z M103.9,73h31.9V45h-31.9V73z"/>
<path class="st1" d="M135.8,71.5h28.9v-25h-28.9V71.5z M134.3,73h31.9V45h-31.9V73z"/>
<path class="st1" d="M166.2,71.5h28.9v-25h-28.9V71.5z M164.7,73h31.9V45h-31.9V73z"/>
<path class="st1" d="M196.6,71.5h28.9v-25h-28.9V71.5z M195.2,73h31.9V45h-31.9V73z"/>
<path class="st1" d="M227.1,71.5H256v-25h-28.9V71.5z M225.6,73h31.9V45h-31.9V73z"/>
<path class="st2" d="M74.2,177.2c-0.4,0-0.7-0.2-1-0.4c-0.5-0.5-0.4-1.4,0.1-1.8l73.5-63.9c0.5-0.4,1.2-0.4,1.7,0l29.6,25.7
	l32.1-29.4c0.3-0.2,0.6-0.4,1-0.3c0.4,0,0.7,0.2,0.9,0.5l4.1,5.6l20.5-33.6c0.4-0.6,1.2-0.8,1.8-0.4c0.6,0.4,0.8,1.2,0.4,1.8
	l-21.5,35.2c-0.2,0.4-0.6,0.6-1.1,0.6c-0.4,0-0.8-0.2-1.1-0.5l-4.4-6L179,139.4c-0.5,0.4-1.2,0.5-1.7,0l-29.6-25.7l-72.6,63.2
	C74.8,177.1,74.5,177.2,74.2,177.2z"/>
<path class="st2" d="M141.2,227c6,6.8,9.6,15.7,9.6,25.4c0,21.2-17.2,38.3-38.3,38.3c-21.2,0-38.3-17.1-38.3-38.3
	s17.2-38.3,38.3-38.3v38.3L141.2,227z"/>
<path class="st1" d="M256.7,227.8h-91.3c-0.4,0-0.7-0.3-0.7-0.7c0-0.4,0.3-0.7,0.7-0.7h91.3c0.4,0,0.7,0.3,0.7,0.7
	C257.5,227.5,257.2,227.8,256.7,227.8z"/>
<path class="st1" d="M256.7,244.7h-91.3c-0.4,0-0.7-0.3-0.7-0.7c0-0.4,0.3-0.7,0.7-0.7h91.3c0.4,0,0.7,0.3,0.7,0.7
	C257.5,244.4,257.2,244.7,256.7,244.7z"/>
<path class="st1" d="M256.7,261.6h-91.3c-0.4,0-0.7-0.3-0.7-0.7c0-0.4,0.3-0.7,0.7-0.7h91.3c0.4,0,0.7,0.3,0.7,0.7
	C257.5,261.2,257.2,261.6,256.7,261.6z"/>
<path class="st1" d="M256.7,278.4h-91.3c-0.4,0-0.7-0.3-0.7-0.7s0.3-0.7,0.7-0.7h91.3c0.4,0,0.7,0.3,0.7,0.7
	S257.2,278.4,256.7,278.4z"/>
<path d="M417.1,327.5h-20.4v234.9h20.4V327.5z"/>
<path class="st1" d="M639.3,434.6v21.1H411.4v-21.1H639.3z"/>
<path d="M658.8,327.5h-20.4v234.9h20.4V327.5z"/>
<path class="st3" d="M1017.6,464.7c-1.6-0.5-3.2-1-4.6-1.5c-1.5-0.4-2.9-0.8-4.2-1.1c-2.7-0.6-5.2-1-7.5-1.1c-2.3-0.1-4.3,0-6.3,0.3
	c-2,0.3-3.9,0.8-5.9,1.5c-0.2,0.1-0.5,0.1-0.8,0.2l-0.8,0.3c-0.5,0.2-1,0.3-1.5,0.6c-0.5,0.2-1,0.5-1.6,0.7c-0.5,0.3-1,0.5-1.6,0.8
	c-0.3,0.1-0.5,0.2-0.8,0.4l-0.8,0.4c-0.5,0.3-1.1,0.6-1.7,0.8l-1.7,0.9l-0.9,0.4l-0.4,0.2l-0.4,0.2c-0.6,0.3-1.2,0.7-1.8,1l-0.9,0.5
	c-0.3,0.2-0.6,0.3-0.9,0.5c-0.6,0.4-1.2,0.7-1.9,1c-0.3,0.2-0.6,0.3-1,0.5c-0.3,0.2-0.6,0.4-1,0.5c-0.7,0.4-1.3,0.7-2,1
	c-0.7,0.3-1.4,0.7-2.1,1c-1.4,0.7-2.9,1.4-4.5,2c0.1-1.7,0.4-3.3,0.8-4.9c0.2-0.8,0.4-1.6,0.7-2.3c0.3-0.8,0.5-1.5,0.8-2.3
	c0.1-0.4,0.3-0.8,0.5-1.1c0.2-0.4,0.3-0.7,0.5-1.1c0.4-0.7,0.7-1.4,1.1-2.2c0.2-0.4,0.4-0.7,0.6-1.1l0.7-1c0.5-0.7,0.9-1.4,1.4-2
	l0.4-0.5c0.1-0.2,0.3-0.3,0.4-0.5l0.8-1c0.5-0.6,1.1-1.3,1.7-1.9c0.6-0.6,1.2-1.2,1.9-1.7l0.9-0.9c0.3-0.3,0.7-0.5,1-0.8
	c0.7-0.5,1.4-1,2.1-1.5c0.8-0.5,1.5-0.9,2.3-1.4c0.8-0.5,1.6-0.8,2.4-1.2c0.8-0.4,1.7-0.7,2.6-1l1.3-0.4c0.4-0.1,0.9-0.3,1.4-0.4
	c0.9-0.2,1.9-0.4,2.8-0.5c1-0.1,1.9-0.2,2.9-0.3c1,0,1.9,0,2.9,0c1,0.1,1.9,0.2,2.9,0.3c0.9,0.2,1.9,0.4,2.8,0.6
	c0.5,0.1,0.9,0.3,1.4,0.5c0.4,0.2,0.9,0.3,1.3,0.5c0.9,0.4,1.7,0.7,2.5,1.2c0.8,0.5,1.6,0.9,2.3,1.5l1.1,0.8c0.3,0.3,0.7,0.6,1,0.9
	c0.3,0.3,0.7,0.6,1,0.9c0.3,0.3,0.6,0.6,0.9,0.9c0.3,0.3,0.6,0.7,0.8,1c0.3,0.3,0.6,0.7,0.8,1c0.2,0.4,0.5,0.7,0.7,1.1
	c0.2,0.4,0.5,0.7,0.7,1.1c0.2,0.4,0.4,0.7,0.6,1.1c0.2,0.4,0.4,0.8,0.5,1.2C1016.9,461.3,1017.5,462.9,1017.6,464.7z"/>
<path class="st1" d="M992.8,445.9c-0.2,0-0.4,0-0.7,0c-0.7,0-1.5,0.1-2.2,0.2l-0.6,0.1c-0.7,0.1-1.3,0.2-2,0.4
	c-0.2,0-0.5,0.1-0.7,0.1c-0.3,0.1-0.7,0.2-1,0.3l-1.6,0.5c-0.8,0.2-1.5,0.5-2.2,0.9l-0.8,0.3c-0.7,0.3-1.3,0.6-1.9,1l-0.6,0.3
	c-0.6,0.3-1.2,0.7-1.7,1l-0.3,0.2c-0.6,0.4-1.2,0.9-1.8,1.3l-0.3,0.3c-0.2,0.2-0.5,0.4-0.7,0.5l-0.9,0.8c-0.6,0.5-1.2,1.1-1.7,1.6
	l-0.1,0.1c-0.4,0.5-0.9,1-1.3,1.5l-0.3,0.4l-0.8,1c-0.1,0.1-0.2,0.3-0.3,0.4l-0.3,0.5c-0.4,0.5-0.8,1.1-1.2,1.7l-0.2,0.3l-0.7,1
	c-0.1,0.2-0.3,0.4-0.4,0.7c-0.1,0.1-0.1,0.2-0.2,0.4c-0.4,0.7-0.8,1.5-1.1,2.1l-0.2,0.4c-0.1,0.2-0.2,0.5-0.3,0.7
	c-0.2,0.4-0.3,0.8-0.4,1.1c-0.3,0.8-0.6,1.6-0.8,2.3l-0.1,0.2c-0.2,0.7-0.4,1.4-0.6,2.1c-0.4,1.5-0.6,2.8-0.7,4
	c1.4-0.6,2.7-1.2,3.6-1.7c0.4-0.2,0.7-0.4,1.1-0.5c0.3-0.2,0.7-0.3,1-0.5c0.6-0.3,1.3-0.6,2-1c0.2-0.1,0.3-0.2,0.4-0.2
	c0.2-0.1,0.4-0.2,0.5-0.3c0.2-0.1,0.4-0.2,0.6-0.3c0.1-0.1,0.2-0.1,0.4-0.2c0.6-0.3,1.2-0.7,1.9-1c0.1-0.1,0.2-0.1,0.4-0.2
	c0.2-0.1,0.4-0.2,0.6-0.3l1.3-0.7c0.5-0.3,0.9-0.5,1.3-0.8l0.4-0.3l1.3-0.7l1.9-1c0.5-0.2,1-0.5,1.5-0.7l0.8-0.4
	c0.2-0.1,0.4-0.2,0.5-0.2c0.1,0,0.2-0.1,0.3-0.1c0.4-0.2,0.7-0.3,1.1-0.5c0.2-0.1,0.3-0.2,0.5-0.3l0,0c0.4-0.2,0.8-0.3,1.1-0.5
	l0.4-0.2c0.4-0.2,0.8-0.4,1.2-0.5c0.1,0,0.3-0.1,0.4-0.1l0.7-0.3c0.2-0.1,0.4-0.1,0.5-0.2c0.1,0,0.2,0,0.3-0.1
	c2.1-0.8,4.1-1.3,6-1.6c2.1-0.3,4.2-0.5,6.4-0.3c2.5,0.1,5,0.5,7.5,1.1c1.2,0.3,2.5,0.6,3.8,1l0.4,0.1c1.3,0.4,2.5,0.8,3.8,1.2
	c-0.2-1.2-0.6-2.5-1.2-3.9c-0.2-0.5-0.4-0.8-0.5-1.1c-0.2-0.4-0.4-0.8-0.6-1.1c-0.2-0.4-0.4-0.7-0.7-1.1c-0.2-0.2-0.3-0.5-0.5-0.7
	l-0.2-0.3c-0.2-0.3-0.4-0.5-0.6-0.8l-0.2-0.2c-0.3-0.4-0.5-0.7-0.8-1c-0.3-0.3-0.6-0.6-0.9-0.9c-0.3-0.3-0.6-0.6-0.9-0.9l-0.3-0.2
	c-0.2-0.2-0.5-0.4-0.7-0.6l-1.1-0.8c-0.7-0.5-1.5-1-2.3-1.4c-0.6-0.3-1.2-0.6-1.8-0.9c-0.2-0.1-0.5-0.2-0.7-0.3
	c-0.3-0.1-0.5-0.2-0.8-0.3c-0.1-0.1-0.3-0.1-0.5-0.2l-0.3-0.1c-0.3-0.1-0.7-0.2-1-0.3l-0.4-0.1c-0.8-0.2-1.5-0.4-2.3-0.5
	c-1-0.1-1.9-0.3-2.8-0.3C994.3,445.9,993.6,445.9,992.8,445.9z M959.7,478.2l0.1-0.8c0.1-1.5,0.4-3.1,0.8-5c0.2-0.8,0.4-1.5,0.6-2.2
	l0.1-0.2c0.2-0.7,0.5-1.5,0.8-2.3c0.1-0.3,0.3-0.8,0.5-1.2c0.1-0.3,0.2-0.5,0.4-0.7l0.2-0.4c0.3-0.7,0.7-1.4,1.1-2.2
	c0.1-0.1,0.1-0.2,0.2-0.3c0.1-0.2,0.3-0.5,0.4-0.8l0.9-1.4c0.4-0.6,0.8-1.1,1.2-1.7l0.4-0.5c0.1-0.2,0.3-0.3,0.4-0.5l1.2-1.4
	c0.4-0.5,0.9-1,1.3-1.5l0.1-0.1c0.6-0.5,1.2-1.1,1.8-1.7l0.9-0.9c0.3-0.2,0.5-0.4,0.7-0.6l0.3-0.2c0.6-0.5,1.2-0.9,1.8-1.3l0.3-0.2
	c0.6-0.4,1.2-0.7,1.8-1.1l0.6-0.3c0.6-0.4,1.3-0.7,2-1l0.8-0.3c0.7-0.3,1.5-0.7,2.3-0.9l1.6-0.5c0.4-0.1,0.7-0.2,1.1-0.3
	c0.2,0,0.5-0.1,0.7-0.1c0.7-0.1,1.4-0.3,2.1-0.4l0.6-0.1c0.8-0.1,1.5-0.2,2.3-0.2c1,0,2,0,2.9,0c1,0.1,1.9,0.2,2.9,0.4
	c0.8,0.2,1.6,0.4,2.4,0.6l0.4,0.1c0.4,0.1,0.7,0.2,1.1,0.4l0.3,0.1c0.2,0.1,0.3,0.1,0.4,0.2c0.3,0.1,0.6,0.2,0.9,0.4
	c0.2,0.1,0.4,0.2,0.7,0.3c0.6,0.3,1.3,0.6,1.9,1c0.8,0.4,1.6,0.9,2.4,1.5l1.1,0.8c0.3,0.2,0.5,0.4,0.8,0.7l0.3,0.2
	c0.3,0.3,0.7,0.6,1,0.9c0.3,0.3,0.6,0.6,0.9,0.9c0.3,0.3,0.6,0.7,0.9,1l0.2,0.2c0.2,0.3,0.4,0.5,0.6,0.8l0.2,0.3
	c0.2,0.3,0.4,0.5,0.5,0.8c0.2,0.4,0.5,0.8,0.7,1.1c0.2,0.4,0.4,0.7,0.6,1.2c0.2,0.3,0.3,0.7,0.5,1.2c0.8,1.9,1.3,3.5,1.4,5.1
	l0.1,0.9l-0.8-0.3c-1.5-0.5-3-1-4.6-1.5l-0.4-0.1c-1.3-0.4-2.5-0.7-3.8-1c-2.5-0.6-4.9-0.9-7.4-1.1c-2.1-0.1-4.1,0-6.2,0.3
	c-1.8,0.3-3.7,0.8-5.8,1.5c-0.1,0-0.2,0.1-0.3,0.1c-0.1,0-0.3,0.1-0.4,0.1l-0.8,0.3c-0.1,0.1-0.3,0.1-0.4,0.2
	c-0.4,0.1-0.7,0.3-1.1,0.4l0,0l-0.4,0.2c-0.4,0.2-0.8,0.3-1.2,0.5c-0.2,0.1-0.3,0.2-0.5,0.2c-0.4,0.2-0.7,0.4-1.1,0.5
	c-0.1,0-0.2,0.1-0.3,0.1c-0.2,0.1-0.3,0.1-0.5,0.2l-0.8,0.4c-0.5,0.3-1,0.5-1.5,0.8l-0.2,0.1l-1.7,0.9l-1.3,0.7l-0.4,0.2
	c-0.4,0.3-0.9,0.5-1.4,0.8l-0.4,0.2l-0.9,0.5c-0.2,0.1-0.4,0.2-0.5,0.3c-0.1,0.1-0.2,0.1-0.4,0.2c-0.6,0.4-1.3,0.7-1.9,1
	c-0.1,0.1-0.2,0.1-0.4,0.2c-0.2,0.1-0.4,0.2-0.6,0.3c-0.2,0.1-0.3,0.2-0.5,0.3c-0.2,0.1-0.3,0.2-0.5,0.3c-0.7,0.4-1.4,0.7-2,1.1
	c-0.3,0.2-0.7,0.3-1,0.5c-0.4,0.2-0.7,0.3-1.1,0.5c-1.2,0.6-2.8,1.4-4.6,2L959.7,478.2z"/>
<path class="st1" d="M953.7,480l-1-0.5c8.6-15.6,19.2-24.5,31.3-26.5c18.2-3,33.8,11,34,11.2l-0.8,0.8c-0.2-0.1-15.4-13.8-33.1-10.9
	C972.4,456,962.1,464.7,953.7,480z"/>
<path class="st3" d="M908.5,466.4c1.5-0.5,2.9-0.9,4.2-1.3c1.3-0.4,2.6-0.7,3.9-1c2.5-0.6,4.8-0.9,6.8-1c2.1-0.1,4,0,5.8,0.3
	c1.8,0.3,3.6,0.8,5.4,1.4c0.2,0.1,0.5,0.1,0.7,0.2l0.7,0.3c0.5,0.2,0.9,0.3,1.4,0.6c0.5,0.2,1,0.4,1.4,0.6c0.5,0.2,1,0.5,1.5,0.7
	c0.2,0.1,0.5,0.2,0.7,0.3l0.7,0.4c0.5,0.3,1,0.5,1.5,0.8l1.6,0.9l0.8,0.4l0.4,0.2l0.4,0.2c0.5,0.3,1.1,0.6,1.6,0.9l0.8,0.4
	c0.3,0.1,0.6,0.3,0.8,0.5c0.6,0.3,1.1,0.6,1.7,0.9c0.3,0.2,0.6,0.3,0.9,0.5c0.3,0.2,0.6,0.3,0.9,0.5c0.6,0.3,1.2,0.6,1.8,1
	c0.6,0.3,1.3,0.6,1.9,0.9c1.3,0.6,2.6,1.3,4.2,1.8c-0.1-1.6-0.4-3.1-0.7-4.5c-0.2-0.7-0.4-1.4-0.6-2.2c-0.2-0.7-0.5-1.4-0.8-2.1
	c-0.1-0.3-0.3-0.7-0.4-1c-0.2-0.3-0.3-0.7-0.5-1c-0.3-0.7-0.7-1.3-1-2c-0.2-0.3-0.3-0.7-0.5-1l-0.6-0.9c-0.4-0.6-0.8-1.2-1.3-1.9
	l-0.3-0.5c-0.1-0.1-0.2-0.3-0.4-0.4l-0.7-0.9c-0.5-0.6-1-1.2-1.5-1.7c-0.6-0.5-1.1-1.1-1.7-1.6l-0.9-0.8c-0.3-0.2-0.6-0.5-0.9-0.7
	c-0.6-0.5-1.3-0.9-1.9-1.4c-0.7-0.4-1.4-0.8-2.1-1.2c-0.7-0.4-1.5-0.8-2.2-1.1c-0.8-0.3-1.5-0.7-2.4-0.9l-1.2-0.4
	c-0.4-0.1-0.8-0.3-1.2-0.3c-0.9-0.2-1.7-0.4-2.6-0.5c-0.9-0.1-1.8-0.2-2.6-0.2c-0.9,0-1.8,0-2.7,0c-0.9,0.1-1.8,0.2-2.6,0.3
	c-0.9,0.2-1.7,0.4-2.6,0.6c-0.4,0.1-0.8,0.3-1.2,0.4c-0.4,0.2-0.8,0.3-1.2,0.5c-0.8,0.4-1.6,0.7-2.3,1.1c-0.7,0.4-1.5,0.8-2.1,1.3
	l-1,0.7c-0.3,0.3-0.6,0.5-0.9,0.8c-0.3,0.3-0.6,0.5-0.9,0.8c-0.3,0.3-0.6,0.6-0.8,0.9c-0.3,0.3-0.5,0.6-0.8,0.9
	c-0.2,0.3-0.5,0.6-0.7,0.9c-0.2,0.3-0.5,0.6-0.7,1c-0.2,0.3-0.4,0.7-0.6,1c-0.2,0.3-0.4,0.7-0.6,1c-0.2,0.3-0.3,0.7-0.5,1.1
	C909.2,463.3,908.7,464.8,908.5,466.4z"/>
<path class="st1" d="M931.2,449.1c0.2,0,0.4,0,0.6,0c0.7,0,1.4,0.1,2,0.2l0.5,0.1c0.6,0.1,1.2,0.2,1.8,0.4c0.2,0,0.4,0.1,0.7,0.1
	c0.3,0.1,0.6,0.2,0.9,0.2l1.5,0.5c0.7,0.2,1.3,0.5,2,0.8l0.7,0.3c0.6,0.3,1.2,0.6,1.8,0.9l0.5,0.3c0.5,0.3,1.1,0.6,1.6,0.9l0.3,0.2
	c0.5,0.4,1.1,0.8,1.6,1.2l0.3,0.2c0.2,0.2,0.4,0.3,0.6,0.5l0.8,0.8c0.5,0.5,1.1,1,1.6,1.5l0.1,0.1c0.4,0.4,0.8,0.9,1.2,1.3l0.3,0.3
	l0.8,0.9c0.1,0.1,0.2,0.2,0.3,0.4l0.3,0.4c0.4,0.5,0.7,1,1.1,1.5l0.2,0.3l0.6,0.9c0.1,0.2,0.2,0.4,0.3,0.6c0.1,0.1,0.1,0.2,0.2,0.3
	c0.4,0.7,0.7,1.4,1,1.9l0.2,0.3c0.1,0.2,0.2,0.4,0.3,0.6c0.1,0.3,0.3,0.7,0.4,1c0.3,0.8,0.5,1.4,0.7,2.1l0.1,0.2
	c0.2,0.6,0.4,1.2,0.5,1.9c0.3,1.4,0.5,2.6,0.7,3.7c-1.3-0.5-2.5-1.1-3.3-1.5c-0.3-0.2-0.7-0.3-1-0.5c-0.3-0.1-0.6-0.3-0.9-0.4
	c-0.6-0.3-1.2-0.6-1.8-0.9c-0.1-0.1-0.3-0.1-0.4-0.2c-0.2-0.1-0.3-0.2-0.5-0.3c-0.2-0.1-0.4-0.2-0.6-0.3c-0.1-0.1-0.2-0.1-0.3-0.2
	c-0.5-0.3-1.1-0.6-1.7-0.9c-0.1-0.1-0.2-0.1-0.3-0.2c-0.2-0.1-0.3-0.2-0.5-0.3l-1.2-0.6c-0.4-0.2-0.8-0.5-1.2-0.7l-0.4-0.2l-1.2-0.6
	l-1.7-0.9c-0.5-0.2-0.9-0.4-1.3-0.7l-0.8-0.4c-0.2-0.1-0.3-0.2-0.5-0.2c-0.1,0-0.2-0.1-0.3-0.1c-0.3-0.1-0.7-0.3-1-0.5
	c-0.2-0.1-0.3-0.2-0.5-0.2l0,0c-0.4-0.1-0.7-0.3-1.1-0.4l-0.3-0.1c-0.4-0.2-0.7-0.3-1.1-0.4c-0.1,0-0.2-0.1-0.3-0.1l-0.7-0.3
	c-0.2-0.1-0.3-0.1-0.5-0.2c-0.1,0-0.2,0-0.2-0.1c-1.9-0.7-3.7-1.1-5.5-1.4c-1.9-0.3-3.9-0.4-5.9-0.3c-2.3,0.1-4.6,0.5-6.9,1
	c-1.1,0.2-2.3,0.6-3.5,0.9l-0.4,0.1c-1.2,0.3-2.3,0.7-3.5,1.1c0.2-1.1,0.5-2.2,1.1-3.6c0.2-0.4,0.3-0.7,0.5-1c0.2-0.4,0.4-0.7,0.5-1
	c0.2-0.3,0.4-0.7,0.6-1c0.1-0.2,0.3-0.4,0.5-0.7l0.2-0.3c0.2-0.2,0.3-0.5,0.5-0.7l0.2-0.2c0.3-0.3,0.5-0.6,0.8-0.9
	c0.3-0.3,0.5-0.6,0.8-0.8c0.3-0.3,0.6-0.6,0.9-0.8l0.3-0.2c0.2-0.2,0.4-0.4,0.7-0.6l1-0.7c0.7-0.5,1.4-0.9,2.1-1.3
	c0.5-0.3,1.1-0.6,1.7-0.8c0.2-0.1,0.4-0.2,0.6-0.3c0.2-0.1,0.5-0.2,0.8-0.3c0.1,0,0.3-0.1,0.4-0.1l0.3-0.1c0.3-0.1,0.6-0.2,0.9-0.3
	l0.4-0.1c0.7-0.2,1.4-0.4,2.1-0.5c0.9-0.1,1.7-0.2,2.6-0.3C929.9,449.1,930.5,449.1,931.2,449.1z M961.6,478.5l-0.1-0.8
	c-0.1-1.4-0.3-2.8-0.7-4.6c-0.1-0.7-0.4-1.3-0.6-2l-0.1-0.2c-0.2-0.7-0.5-1.3-0.8-2.1c-0.1-0.3-0.3-0.7-0.4-1
	c-0.1-0.2-0.2-0.5-0.3-0.7l-0.2-0.3c-0.3-0.6-0.6-1.3-1-2c-0.1-0.1-0.1-0.2-0.2-0.3c-0.1-0.2-0.2-0.5-0.4-0.7l-0.8-1.3
	c-0.3-0.5-0.7-1-1.1-1.6l-0.3-0.5c-0.1-0.2-0.2-0.3-0.3-0.4l-1.1-1.3c-0.4-0.5-0.8-0.9-1.2-1.4l-0.1-0.1c-0.5-0.5-1.1-1-1.6-1.5
	l-0.9-0.8c-0.2-0.2-0.5-0.4-0.7-0.5l-0.3-0.2c-0.5-0.4-1.1-0.8-1.7-1.2l-0.3-0.2c-0.6-0.3-1.1-0.7-1.6-1l-0.5-0.3
	c-0.6-0.4-1.2-0.6-1.9-0.9l-0.7-0.3c-0.7-0.3-1.4-0.6-2.1-0.8l-1.5-0.5c-0.3-0.1-0.7-0.2-1-0.3c-0.2,0-0.4-0.1-0.6-0.1
	c-0.6-0.1-1.3-0.3-1.9-0.4l-0.6-0.1c-0.7-0.1-1.4-0.1-2.1-0.2c-1,0-1.9,0-2.7,0c-0.9,0.1-1.7,0.2-2.7,0.3c-0.8,0.1-1.5,0.3-2.2,0.5
	l-0.4,0.1c-0.3,0.1-0.7,0.2-1,0.3l-0.3,0.1c-0.1,0.1-0.3,0.1-0.4,0.1c-0.3,0.1-0.6,0.2-0.9,0.3c-0.2,0.1-0.4,0.2-0.6,0.3
	c-0.6,0.3-1.2,0.5-1.7,0.9c-0.7,0.4-1.5,0.8-2.2,1.4l-1,0.7c-0.3,0.2-0.5,0.4-0.7,0.6l-0.3,0.2c-0.3,0.3-0.6,0.5-0.9,0.9
	c-0.3,0.3-0.6,0.6-0.8,0.9c-0.3,0.3-0.6,0.6-0.8,0.9l-0.2,0.2c-0.2,0.2-0.4,0.5-0.6,0.8l-0.2,0.3c-0.2,0.2-0.3,0.5-0.5,0.7
	c-0.2,0.3-0.4,0.7-0.6,1c-0.2,0.3-0.4,0.7-0.6,1c-0.2,0.3-0.3,0.6-0.5,1.1c-0.7,1.7-1.2,3.2-1.3,4.6l-0.1,0.8l0.7-0.2
	c1.4-0.5,2.8-0.9,4.2-1.3l0.4-0.1c1.2-0.3,2.3-0.7,3.5-0.9c2.3-0.5,4.5-0.9,6.8-1c2-0.1,3.8,0,5.7,0.3c1.7,0.3,3.4,0.7,5.3,1.4
	c0.1,0,0.2,0.1,0.3,0.1c0.1,0,0.2,0.1,0.3,0.1l0.7,0.3c0.1,0.1,0.3,0.1,0.4,0.1c0.3,0.1,0.7,0.2,1,0.4l0,0l0.4,0.2
	c0.3,0.1,0.7,0.3,1.1,0.4c0.2,0.1,0.3,0.1,0.4,0.2c0.3,0.2,0.7,0.3,1,0.5c0.1,0,0.2,0.1,0.3,0.1c0.1,0.1,0.3,0.1,0.4,0.2l0.7,0.4
	c0.4,0.2,0.9,0.5,1.4,0.7l0.2,0.1l1.5,0.8l1.2,0.6l0.4,0.2c0.4,0.2,0.8,0.5,1.3,0.7l0.4,0.2l0.9,0.4c0.2,0.1,0.3,0.2,0.5,0.3
	c0.1,0.1,0.2,0.1,0.3,0.2c0.6,0.3,1.2,0.7,1.7,0.9c0.1,0.1,0.2,0.1,0.3,0.2c0.2,0.1,0.4,0.2,0.6,0.3c0.1,0.1,0.3,0.2,0.5,0.2
	c0.1,0.1,0.3,0.2,0.4,0.2c0.7,0.4,1.3,0.7,1.8,1c0.3,0.2,0.6,0.3,0.9,0.5c0.3,0.2,0.7,0.3,1,0.5c1.1,0.5,2.5,1.2,4.2,1.8
	L961.6,478.5z"/>
<path class="st1" d="M967,480.4l0.9-0.5c-7.9-14.3-17.5-22.5-28.6-24.4c-16.7-2.7-31,10.1-31.1,10.3l0.7,0.8
	c0.1-0.1,14.1-12.7,30.3-10C949.9,458.3,959.3,466.4,967,480.4z"/>
<path class="st3" d="M965,486.7c-1.7-3.1-2.9-6.3-3.9-9.6c-1-3.3-1.8-6.6-2.3-9.9c-0.6-3.4-0.9-6.8-1.1-10.2
	c-0.2-3.4-0.2-6.9,0-10.3c0.4-6.9,1.7-13.9,3.9-20.7c2.2-6.9,5.4-13.6,9.8-19.8c4.3-6.2,9.9-11.8,16.4-16.1c0.8-0.5,1.6-1.1,2.5-1.6
	c0.8-0.5,1.7-0.9,2.5-1.4c1.7-0.9,3.5-1.7,5.3-2.4c3.6-1.4,7.2-2.5,10.9-3.1c3.7-0.7,7.4-1,11-0.9l1.4,0c0.4,0,0.9,0.1,1.3,0.1
	c0.9,0.1,1.8,0.1,2.7,0.2c0.9,0.1,1.8,0.2,2.6,0.4l1.3,0.2c0.4,0.1,0.9,0.2,1.3,0.3c0.9,0.2,1.7,0.4,2.6,0.5
	c0.9,0.2,1.7,0.4,2.5,0.7c1.7,0.4,3.3,1,4.9,1.6c0.8,0.3,1.6,0.6,2.4,1c0.8,0.3,1.6,0.7,2.3,1.1c1.5,0.8,3.1,1.6,4.5,2.6
	c-1.7,0.6-3.3,0.9-4.9,1.4c-0.8,0.2-1.6,0.5-2.4,0.7c-0.4,0.1-0.8,0.2-1.2,0.3c-0.4,0.1-0.8,0.2-1.2,0.3c-0.8,0.2-1.5,0.4-2.3,0.6
	c-0.4,0.1-0.8,0.2-1.2,0.3l-1.1,0.3c-0.8,0.2-1.5,0.4-2.2,0.7c-0.7,0.3-1.5,0.5-2.2,0.7l-1.1,0.3l-1.1,0.4c-0.7,0.3-1.4,0.5-2.1,0.7
	c-1.4,0.6-2.8,1-4.1,1.6l-2,0.8l-1.9,0.9l-0.5,0.2l-0.5,0.2l-0.9,0.5c-0.3,0.2-0.6,0.3-0.9,0.5c-0.3,0.1-0.6,0.3-0.9,0.5l-1.8,1
	l-1.7,1c-0.6,0.3-1.1,0.7-1.6,1c-0.3,0.2-0.5,0.3-0.8,0.5c-0.3,0.2-0.5,0.4-0.8,0.6c-1.1,0.7-2,1.5-3,2.3c-0.5,0.4-1,0.8-1.5,1.2
	c-0.5,0.4-0.9,0.8-1.4,1.2c-3.7,3.3-6.9,7.1-9.9,11.3c-3,4.2-5.6,8.8-8.1,13.8c-2.5,5-4.7,10.3-6.9,15.8c-2.1,5.5-4.2,11.3-6.3,17.2
	l-3.2,9.1C967.3,480.3,966.2,483.4,965,486.7z"/>
<path class="st1" d="M1019.1,381c-3.1,0-6.4,0.3-9.8,0.9c-3.4,0.6-7.1,1.6-10.8,3.1c-1.6,0.6-3.2,1.4-5.2,2.4l-0.5,0.2
	c-0.7,0.4-1.4,0.8-2.1,1.1c-0.6,0.4-1.2,0.8-1.8,1.1l-0.6,0.4c-6.3,4.1-11.9,9.6-16.3,15.9c-4.1,5.9-7.4,12.5-9.7,19.7
	c-2.1,6.6-3.4,13.5-3.9,20.6c-0.2,3.4-0.2,6.9,0,10.3c0.2,3.4,0.6,6.8,1.1,10.1c0.6,3.4,1.4,6.8,2.3,9.9c1.1,3.4,2.1,6,3.3,8.4
	c1-2.7,1.9-5.3,2.8-7.8l0.2-0.5l3.2-9.1c2.5-7,4.4-12.4,6.3-17.3c2.5-6.3,4.7-11.3,6.9-15.8c2.7-5.3,5.3-9.9,8.1-13.9
	c2.9-4.2,6.2-7.9,10-11.3c0.2-0.2,0.4-0.4,0.6-0.5c0.3-0.2,0.5-0.5,0.8-0.7c0.4-0.3,0.8-0.6,1.1-0.9l0.3-0.3
	c0.3-0.2,0.6-0.5,0.9-0.7c0.7-0.5,1.4-1.1,2.2-1.6l0.1-0.1c0.2-0.2,0.5-0.3,0.7-0.5c0.2-0.1,0.4-0.2,0.5-0.4
	c0.1-0.1,0.2-0.1,0.3-0.2c0.2-0.1,0.4-0.3,0.6-0.4c0.3-0.2,0.7-0.5,1-0.7l1.7-1l1.8-1c0.1-0.1,0.2-0.1,0.3-0.2
	c0.2-0.1,0.4-0.2,0.6-0.3c0.2-0.1,0.5-0.2,0.8-0.4l1.5-0.8l0.5-0.2l1.9-0.9l2-0.8c0.8-0.3,1.6-0.7,2.4-1c0.6-0.2,1.1-0.4,1.7-0.7
	c0.3-0.1,0.5-0.2,0.8-0.3c0.4-0.1,0.9-0.3,1.3-0.5l1.1-0.4l1.1-0.3c0.3-0.1,0.6-0.2,0.8-0.3c0.4-0.1,0.9-0.3,1.3-0.4
	c0.4-0.1,0.8-0.2,1.2-0.3c0.4-0.1,0.7-0.2,1.1-0.3l1.1-0.3c0.4-0.1,0.8-0.2,1.2-0.3c0.6-0.2,1.2-0.3,1.8-0.5l0.5-0.1
	c0.2,0,0.3-0.1,0.5-0.1c0.2-0.1,0.5-0.1,0.7-0.2c0.4-0.1,0.8-0.2,1.2-0.3c0.8-0.2,1.5-0.4,2.4-0.7c0.5-0.1,1-0.3,1.5-0.4
	c0.7-0.2,1.5-0.4,2.3-0.6c-1-0.6-2.1-1.2-3.5-1.9c-0.8-0.4-1.6-0.7-2.3-1.1c-0.9-0.4-1.6-0.7-2.4-1c-1.7-0.6-3.3-1.2-4.9-1.6
	c-0.9-0.3-1.7-0.5-2.5-0.7c-0.6-0.1-1.2-0.3-1.8-0.4l-0.8-0.2c-0.4-0.1-0.9-0.2-1.3-0.3l-1.3-0.2c-0.6-0.1-1.2-0.2-1.9-0.3l-0.8-0.1
	c-0.7-0.1-1.4-0.1-2-0.2l-1-0.1c-0.3,0-0.6,0-0.9-0.1l-1.3,0C1019.8,381,1019.5,381,1019.1,381z M965.3,487.8l-0.6-1.1
	c-1.5-2.7-2.7-5.7-3.9-9.7c-1-3.2-1.8-6.5-2.4-10c-0.6-3.3-0.9-6.8-1.1-10.2c-0.2-3.4-0.2-6.9,0.1-10.4c0.4-7.2,1.8-14.2,3.9-20.9
	c2.3-7.3,5.6-14,9.9-20c4.5-6.4,10.2-12,16.6-16.2l0.7-0.4c0.6-0.4,1.2-0.8,1.8-1.2c0.7-0.4,1.4-0.8,2.1-1.2l0.5-0.3
	c2-1,3.7-1.8,5.3-2.4c3.8-1.5,7.5-2.6,11-3.2c3.9-0.7,7.6-1,11.1-0.9l1.3,0c0.3,0,0.6,0,1,0.1l1,0.1c0.7,0,1.4,0.1,2.1,0.2l0.8,0.1
	c0.6,0.1,1.3,0.2,1.9,0.3l1.3,0.2c0.5,0.1,0.9,0.2,1.3,0.3l0.8,0.2c0.6,0.1,1.2,0.3,1.8,0.4c0.8,0.2,1.6,0.4,2.6,0.7
	c1.6,0.4,3.2,1,5,1.7c0.7,0.3,1.5,0.6,2.4,1c0.8,0.3,1.6,0.7,2.3,1.1c1.8,0.9,3.3,1.8,4.6,2.6l1,0.6l-1.1,0.4
	c-1.2,0.4-2.4,0.7-3.5,1c-0.5,0.1-1,0.3-1.5,0.4c-0.9,0.2-1.6,0.5-2.4,0.7c-0.4,0.1-0.8,0.2-1.2,0.3c-0.2,0.1-0.4,0.1-0.6,0.2
	c-0.2,0.1-0.4,0.1-0.5,0.2l-0.5,0.1c-0.6,0.2-1.2,0.3-1.8,0.5c-0.4,0.1-0.7,0.2-1.1,0.3l-1.1,0.3c-0.4,0.1-0.7,0.2-1.1,0.3
	c-0.4,0.1-0.8,0.2-1.1,0.3c-0.4,0.2-0.9,0.3-1.4,0.4c-0.3,0.1-0.6,0.2-0.8,0.3l-1.1,0.3l-1,0.4c-0.5,0.2-0.9,0.3-1.4,0.5
	c-0.3,0.1-0.5,0.2-0.8,0.3c-0.5,0.2-1.1,0.4-1.7,0.7c-0.8,0.3-1.6,0.6-2.3,0.9l-2,0.8l-2.8,1.3l-1,0.5c-0.3,0.1-0.5,0.3-0.8,0.4
	c-0.2,0.1-0.3,0.2-0.5,0.3c-0.1,0.1-0.2,0.1-0.3,0.2l-1.7,1l-1.7,1c-0.3,0.2-0.7,0.4-1,0.6c-0.2,0.1-0.4,0.3-0.6,0.4
	c-0.1,0.1-0.2,0.1-0.3,0.2c-0.2,0.1-0.3,0.2-0.5,0.3c-0.2,0.2-0.5,0.3-0.7,0.5l-0.1,0.1c-0.7,0.5-1.4,1-2.1,1.5
	c-0.3,0.2-0.6,0.5-0.9,0.7l-0.3,0.3c-0.4,0.3-0.8,0.6-1.1,0.9c-0.2,0.2-0.5,0.4-0.8,0.7c-0.2,0.2-0.4,0.4-0.6,0.5
	c-3.7,3.4-6.9,7-9.8,11.2c-2.8,3.9-5.4,8.4-8,13.7c-2.2,4.5-4.4,9.5-6.8,15.7c-1.9,4.9-3.8,10.2-6.3,17.2l-3.4,9.6
	c-1,2.9-2.1,5.9-3.3,9L965.3,487.8z"/>
<path class="st1" d="M955.7,470l-1.1,0c0-0.1,0.1-9.3,3.3-21.3c3-11.1,9.4-26.9,22.7-39.4c16.6-15.5,39.9-22.5,69.3-20.6l-0.1,1.1
	c-29.1-1.8-52.1,5-68.5,20.3C968.2,422.4,961.9,438,959,449C955.7,460.8,955.7,469.9,955.7,470z"/>
<path class="st3" d="M959.7,521.2c1.7-3.1,2.9-6.3,3.9-9.6c1-3.3,1.8-6.6,2.3-9.9c0.6-3.4,0.9-6.8,1.1-10.2c0.2-3.4,0.2-6.9,0-10.3
	c-0.4-6.9-1.7-13.9-3.9-20.7c-2.2-6.9-5.4-13.6-9.8-19.8c-4.3-6.2-9.9-11.8-16.4-16.1c-0.8-0.5-1.6-1.1-2.5-1.6
	c-0.8-0.5-1.7-0.9-2.5-1.4c-1.7-0.9-3.5-1.7-5.3-2.4c-3.6-1.4-7.2-2.5-10.9-3.1c-3.7-0.7-7.4-1-11-0.9l-1.4,0
	c-0.5,0-0.9,0.1-1.4,0.1c-0.9,0.1-1.8,0.1-2.7,0.2c-0.9,0.1-1.8,0.2-2.6,0.4l-1.3,0.2c-0.4,0.1-0.9,0.2-1.3,0.3
	c-0.9,0.2-1.7,0.4-2.6,0.5c-0.8,0.2-1.7,0.4-2.5,0.7c-1.7,0.4-3.3,1-4.9,1.6c-0.8,0.3-1.6,0.6-2.4,1c-0.8,0.4-1.6,0.7-2.3,1.1
	c-1.5,0.8-3.1,1.6-4.5,2.6c1.7,0.6,3.3,0.9,4.9,1.4c0.8,0.2,1.6,0.5,2.4,0.7c0.4,0.1,0.8,0.2,1.2,0.3c0.4,0.1,0.8,0.2,1.2,0.3
	c0.8,0.2,1.6,0.4,2.3,0.7c0.4,0.1,0.8,0.2,1.1,0.3l1.1,0.3c0.8,0.2,1.5,0.4,2.2,0.7c0.7,0.3,1.5,0.5,2.2,0.7l1.1,0.3l1.1,0.4
	c0.7,0.3,1.4,0.5,2.1,0.7c1.4,0.6,2.8,1,4.1,1.6l2,0.8l1.9,0.9l0.5,0.2l0.5,0.2l0.9,0.5c0.3,0.2,0.6,0.3,0.9,0.5
	c0.3,0.1,0.6,0.3,0.9,0.5l1.8,1l1.7,1c0.6,0.3,1.1,0.7,1.6,1c0.3,0.2,0.5,0.3,0.8,0.5c0.3,0.2,0.5,0.4,0.8,0.6c1.1,0.7,2,1.5,3,2.3
	c0.5,0.4,1,0.8,1.4,1.2c0.5,0.4,0.9,0.8,1.4,1.2c3.7,3.3,6.9,7.1,9.9,11.3c3,4.2,5.6,8.8,8.1,13.8c2.5,5,4.7,10.3,6.9,15.8
	c2.1,5.5,4.2,11.3,6.3,17.2l3.2,9.1C957.3,514.8,958.4,518,959.7,521.2z"/>
<path class="st1" d="M905.6,415.5c3.1,0,6.4,0.3,9.8,0.9c3.5,0.6,7.1,1.6,10.8,3.1c1.6,0.6,3.2,1.4,5.2,2.4l0.5,0.2
	c0.7,0.4,1.4,0.8,2.1,1.1c0.6,0.4,1.2,0.8,1.8,1.1l0.6,0.4c6.3,4.1,11.9,9.6,16.3,15.9c4.1,5.9,7.4,12.5,9.7,19.7
	c2.1,6.6,3.4,13.5,3.9,20.6c0.2,3.4,0.2,6.9,0,10.3c-0.2,3.4-0.6,6.8-1.1,10.1c-0.6,3.4-1.4,6.8-2.3,9.9c-1.1,3.4-2.1,6-3.3,8.4
	c-1-2.7-1.9-5.3-2.9-7.8l-0.2-0.5l-3.2-9.1c-2.5-7-4.4-12.4-6.3-17.3c-2.5-6.3-4.7-11.3-6.9-15.8c-2.7-5.3-5.3-9.9-8.1-13.9
	c-2.9-4.2-6.2-7.9-10-11.3c-0.2-0.2-0.4-0.4-0.6-0.5c-0.3-0.2-0.5-0.5-0.8-0.7c-0.4-0.3-0.8-0.6-1.1-0.9l-0.3-0.3
	c-0.3-0.2-0.6-0.5-0.9-0.7c-0.7-0.5-1.4-1.1-2.1-1.6l-0.1-0.1c-0.2-0.2-0.5-0.3-0.7-0.5c-0.2-0.1-0.4-0.2-0.5-0.4
	c-0.1-0.1-0.2-0.1-0.3-0.2c-0.2-0.1-0.4-0.3-0.6-0.4c-0.3-0.2-0.7-0.5-1-0.7l-1.7-1l-1.8-1c-0.1-0.1-0.2-0.1-0.3-0.2
	c-0.2-0.1-0.4-0.2-0.6-0.3c-0.3-0.1-0.5-0.2-0.8-0.4l-1.5-0.8l-0.5-0.2l-1.9-0.9l-2-0.8c-0.8-0.3-1.6-0.7-2.4-1
	c-0.6-0.2-1.1-0.4-1.7-0.7c-0.3-0.1-0.5-0.2-0.8-0.3c-0.4-0.1-0.9-0.3-1.3-0.5l-1.1-0.4l-1.1-0.3c-0.3-0.1-0.6-0.2-0.8-0.3
	c-0.4-0.1-0.9-0.3-1.4-0.4c-0.4-0.1-0.8-0.2-1.2-0.3c-0.4-0.1-0.7-0.2-1.1-0.3l-1.1-0.3c-0.4-0.1-0.8-0.2-1.2-0.3
	c-0.6-0.2-1.2-0.3-1.8-0.5l-0.5-0.1c-0.2,0-0.3-0.1-0.5-0.1c-0.2-0.1-0.5-0.1-0.7-0.2c-0.4-0.1-0.8-0.2-1.2-0.3
	c-0.8-0.2-1.5-0.4-2.4-0.7c-0.5-0.1-1-0.3-1.5-0.4c-0.7-0.2-1.5-0.4-2.3-0.6c1-0.6,2.1-1.2,3.5-1.9c0.8-0.4,1.6-0.7,2.3-1.1
	c0.9-0.4,1.6-0.7,2.4-1c1.7-0.6,3.3-1.2,4.9-1.6c0.9-0.3,1.7-0.5,2.5-0.7c0.6-0.1,1.2-0.3,1.8-0.4l0.8-0.2c0.4-0.1,0.9-0.2,1.3-0.3
	l1.3-0.2c0.6-0.1,1.2-0.2,1.9-0.3l0.8-0.1c0.7-0.1,1.4-0.1,2-0.2l1-0.1c0.3,0,0.6,0,0.9-0.1l1.3,0
	C904.8,415.5,905.2,415.5,905.6,415.5z M959.4,522.3l0.6-1.1c1.5-2.7,2.7-5.7,3.9-9.7c1-3.2,1.8-6.5,2.4-10
	c0.6-3.3,0.9-6.8,1.1-10.2c0.2-3.4,0.2-6.9-0.1-10.4c-0.4-7.2-1.8-14.2-3.9-20.9c-2.3-7.3-5.6-14-9.9-20c-4.5-6.4-10.2-12-16.6-16.2
	l-0.7-0.4c-0.6-0.4-1.2-0.8-1.8-1.2c-0.7-0.4-1.4-0.8-2.1-1.2l-0.5-0.3c-2-1-3.7-1.8-5.3-2.4c-3.8-1.5-7.5-2.6-11-3.2
	c-3.9-0.7-7.6-1-11.1-0.9l-1.3,0c-0.3,0-0.6,0-0.9,0.1l-1,0.1c-0.7,0-1.4,0.1-2.1,0.2l-0.8,0.1c-0.6,0.1-1.3,0.2-1.9,0.3l-1.3,0.2
	c-0.5,0.1-0.9,0.2-1.3,0.3l-0.8,0.2c-0.6,0.1-1.2,0.3-1.8,0.4c-0.8,0.2-1.6,0.4-2.6,0.7c-1.6,0.4-3.2,1-5,1.7
	c-0.7,0.3-1.5,0.6-2.4,1c-0.8,0.3-1.6,0.7-2.4,1.1c-1.8,0.9-3.3,1.8-4.6,2.6l-1,0.6l1.1,0.4c1.2,0.4,2.3,0.7,3.5,1
	c0.5,0.1,1,0.3,1.5,0.4c0.9,0.2,1.7,0.5,2.4,0.7c0.4,0.1,0.8,0.2,1.2,0.3c0.2,0.1,0.4,0.1,0.6,0.2c0.2,0.1,0.4,0.1,0.5,0.2l0.5,0.1
	c0.6,0.2,1.2,0.3,1.8,0.5c0.4,0.1,0.7,0.2,1.1,0.3l1.1,0.3c0.4,0.1,0.7,0.2,1.1,0.3c0.4,0.1,0.8,0.2,1.1,0.3
	c0.4,0.2,0.9,0.3,1.4,0.4c0.3,0.1,0.6,0.2,0.8,0.3l1.1,0.3l1,0.4c0.4,0.2,0.9,0.3,1.3,0.5c0.3,0.1,0.5,0.2,0.8,0.3
	c0.5,0.2,1.1,0.4,1.7,0.7c0.8,0.3,1.6,0.6,2.3,0.9l2,0.8l2.8,1.3l1,0.5c0.3,0.1,0.5,0.3,0.8,0.4c0.2,0.1,0.4,0.2,0.5,0.3
	c0.1,0.1,0.2,0.1,0.3,0.2l1.7,1l1.7,1c0.3,0.2,0.7,0.4,1,0.6c0.2,0.1,0.4,0.3,0.6,0.4c0.1,0.1,0.2,0.1,0.3,0.2
	c0.2,0.1,0.3,0.2,0.5,0.3c0.2,0.2,0.5,0.3,0.7,0.5l0.1,0.1c0.7,0.5,1.4,1,2.1,1.5c0.3,0.2,0.6,0.5,0.9,0.7l0.3,0.3
	c0.4,0.3,0.8,0.6,1.1,0.9c0.2,0.2,0.5,0.4,0.8,0.7c0.2,0.2,0.4,0.4,0.6,0.5c3.7,3.4,6.9,7,9.8,11.2c2.8,3.9,5.4,8.4,8,13.7
	c2.2,4.5,4.4,9.5,6.8,15.7c1.9,4.9,3.8,10.2,6.3,17.2l3.4,9.6c1,2.9,2.1,5.9,3.3,9L959.4,522.3z"/>
<path class="st1" d="M969,504.5l1.1,0c0-0.1-0.1-9.3-3.3-21.3c-3-11.1-9.4-26.9-22.7-39.4c-16.6-15.5-39.9-22.5-69.3-20.6l0.1,1.1
	c29.1-1.8,52.1,5,68.5,20.3c13.2,12.3,19.5,27.9,22.4,38.9C968.9,495.4,969,504.4,969,504.5z"/>
<path class="st3" d="M959.6,491c-1.6-3.3-3-6.5-4.3-9.7c-1.3-3.2-2.5-6.5-3.6-9.7c-2.3-6.5-4.3-12.9-6.1-19.3
	c-1.9-6.4-3.5-12.8-5.1-19.2c-1.6-6.4-3.1-12.8-4.5-19.2c-2.9-12.7-5.5-25.4-8.4-38c-1.5-6.3-3-12.6-4.8-18.9
	c-0.9-3.1-1.9-6.3-3-9.5c-1.1-3.2-2.4-6.3-3.9-9.6c3.7,1.5,7,3.5,10.1,5.9c3.1,2.3,5.9,4.9,8.4,7.7c2.6,2.8,4.9,5.7,7,8.6
	c0.5,0.7,1.1,1.5,1.6,2.3l1.5,2.3c0.9,1.5,1.9,3.1,2.8,4.7c3.6,6.3,6.4,12.8,8.8,19.3c2.4,6.6,4.3,13.3,5.8,20
	c1.5,6.7,2.6,13.5,3.3,20.4c0.7,6.8,1.1,13.7,1,20.6c-0.1,6.9-0.6,13.8-1.6,20.7c-0.5,3.5-1.1,6.9-1.9,10.4
	C961.8,484.1,960.9,487.5,959.6,491z"/>
<path class="st1" d="M917,338.8c1.3,2.9,2.4,5.7,3.4,8.5c1,2.9,2,6,3,9.5c2,6.9,3.6,13.7,4.8,18.9c1.6,6.9,3.1,13.9,4.6,20.7
	c1.2,5.7,2.5,11.6,3.8,17.4c1.7,7.4,3.1,13.5,4.5,19.2c1.7,7,3.4,13.3,5.1,19.3c1.9,6.6,3.9,13.1,6.1,19.3c1.2,3.3,2.4,6.6,3.6,9.7
	c1,2.6,2.3,5.5,3.7,8.5c1.1-3.2,1.9-6.4,2.5-9.1c0.7-3.3,1.4-6.8,1.9-10.4c1-6.8,1.5-13.7,1.5-20.7c0.1-6.6-0.2-13.6-1-20.6
	c-0.7-6.9-1.8-13.7-3.3-20.4c-1.5-6.9-3.5-13.6-5.8-20c-2.6-7.2-5.5-13.5-8.8-19.3c-0.7-1.4-1.6-2.7-2.4-4l-0.4-0.6l-1.5-2.3
	c-0.3-0.5-0.7-1-1-1.5c-0.2-0.2-0.3-0.5-0.5-0.7c-2.2-3.1-4.6-6-7-8.6c-2.7-2.9-5.5-5.5-8.3-7.6C922.7,341.8,919.8,340.1,917,338.8z
	 M959.8,492.4l-0.6-1.2c-1.7-3.4-3.1-6.9-4.3-9.8c-1.3-3.1-2.5-6.4-3.6-9.7c-2.2-6.2-4.2-12.7-6.1-19.4c-1.7-6-3.4-12.3-5.1-19.3
	c-1.4-5.7-2.8-11.8-4.5-19.2c-1.3-5.8-2.6-11.7-3.8-17.4c-1.5-6.8-3-13.8-4.6-20.6c-1.2-5.2-2.8-12-4.8-18.9c-1-3.5-2-6.6-3-9.4
	c-1.1-3.2-2.4-6.3-3.9-9.6l-0.5-1.2l1.3,0.5c3.3,1.3,6.7,3.3,10.2,5.9c2.9,2.2,5.8,4.8,8.5,7.8c2.4,2.6,4.8,5.5,7,8.7
	c0.2,0.2,0.3,0.5,0.5,0.7c0.4,0.5,0.7,1,1.1,1.6l1.5,2.3l0.4,0.7c0.8,1.3,1.6,2.7,2.4,4c3.3,5.9,6.2,12.2,8.9,19.4
	c2.3,6.4,4.3,13.1,5.8,20.1c1.5,6.7,2.6,13.5,3.3,20.4c0.7,7,1.1,14,1,20.6c-0.1,7-0.6,14-1.6,20.8c-0.5,3.6-1.1,7.1-1.9,10.4
	c-0.7,3.1-1.6,6.7-3,10.4L959.8,492.4z"/>
<path class="st1" d="M960.1,491.3l-1.1,0c-0.6-26-3.3-50.2-7.9-71.9c-3.7-17.4-8.7-33.3-14.9-47.2c-10.4-23.7-20.6-33.6-20.7-33.7
	l0.8-0.7c0.1,0.1,10.4,10.2,20.9,34c6.2,14,11.2,29.9,14.9,47.4C956.8,441,959.5,465.3,960.1,491.3z"/>
<path class="st0" d="M971.2,562.8h-24c-14.4,0-26-11.7-26-26v-4.9c0-21,17-38,38-38s38,17,38,38v4.9
	C997.2,551.1,985.6,562.8,971.2,562.8z"/>
<path class="st1" d="M959,494.1c-20.7,0-37.5,16.8-37.5,37.5v4.9c0,14,11.4,25.5,25.5,25.5h24c14,0,25.5-11.4,25.5-25.5v-4.9
	C996.5,510.9,979.7,494.1,959,494.1z M971,563.1h-24c-14.7,0-26.6-11.9-26.6-26.6v-4.9c0-21.3,17.3-38.6,38.6-38.6
	c21.3,0,38.6,17.3,38.6,38.6v4.9C997.6,551.2,985.7,563.1,971,563.1z"/>
<path class="st0" d="M977.7,499.3h-37.3l-6.1-25.4c-0.7-2.9,1.5-5.8,4.6-5.8h40.4c3,0,5.3,2.8,4.6,5.8L977.7,499.3z"/>
<path class="st1" d="M941,498.6h36.4l6-25c0.3-1.2,0-2.5-0.8-3.5c-0.8-1-2-1.6-3.2-1.6H939c-1.3,0-2.4,0.6-3.2,1.6
	c-0.8,1-1.1,2.3-0.8,3.5L941,498.6z M978.3,499.7h-38.2l-6.2-25.8c-0.4-1.6,0-3.2,1-4.5c1-1.3,2.5-2,4.1-2h40.4c1.6,0,3.1,0.7,4.1,2
	c1,1.3,1.4,2.9,1,4.5L978.3,499.7z"/>
<path class="st1" d="M923,519.7h72v-1.1h-72V519.7z"/>
<path class="st1" d="M928,526.1c-1.1,0-2,0.9-2,2c0,1.1,0.9,2,2,2c1.1,0,2-0.9,2-2C930,527,929.1,526.1,928,526.1z M928,531.2
	c-1.7,0-3.2-1.4-3.2-3.2c0-1.7,1.4-3.2,3.2-3.2c1.7,0,3.2,1.4,3.2,3.2C931.2,529.8,929.7,531.2,928,531.2z"/>
<path class="st1" d="M944,526.1c-1.1,0-2,0.9-2,2c0,1.1,0.9,2,2,2s2-0.9,2-2C946,527,945.1,526.1,944,526.1z M944,531.2
	c-1.7,0-3.2-1.4-3.2-3.2c0-1.7,1.4-3.2,3.2-3.2s3.2,1.4,3.2,3.2C947.1,529.8,945.7,531.2,944,531.2z"/>
<path class="st1" d="M959.9,526.1c-1.1,0-2,0.9-2,2c0,1.1,0.9,2,2,2c1.1,0,2-0.9,2-2C961.9,527,961,526.1,959.9,526.1z M959.9,531.2
	c-1.7,0-3.2-1.4-3.2-3.2c0-1.7,1.4-3.2,3.2-3.2c1.7,0,3.2,1.4,3.2,3.2C963.1,529.8,961.7,531.2,959.9,531.2z"/>
<path class="st1" d="M975.9,526.1c-1.1,0-2,0.9-2,2c0,1.1,0.9,2,2,2s2-0.9,2-2C977.9,527,977,526.1,975.9,526.1z M975.9,531.2
	c-1.7,0-3.2-1.4-3.2-3.2c0-1.7,1.4-3.2,3.2-3.2c1.7,0,3.2,1.4,3.2,3.2C979,529.8,977.6,531.2,975.9,531.2z"/>
<path class="st1" d="M991.5,526.1c-1.1,0-2,0.9-2,2c0,1.1,0.9,2,2,2c1.1,0,2-0.9,2-2C993.5,527,992.6,526.1,991.5,526.1z
	 M991.5,531.2c-1.7,0-3.2-1.4-3.2-3.2c0-1.7,1.4-3.2,3.2-3.2c1.7,0,3.2,1.4,3.2,3.2C994.6,529.8,993.2,531.2,991.5,531.2z"/>
<path d="M685.8,315.6H370v19.3h315.8V315.6z"/>
<path class="st0" d="M518.5,285.6H498v-30.2c0-5.7,4.6-10.3,10.3-10.3s10.3,4.6,10.3,10.3V285.6z"/>
<path class="st1" d="M498.5,285H518v-29.7c0-5.4-4.4-9.7-9.7-9.7c-5.4,0-9.7,4.4-9.7,9.7V285z M518.5,286.1H498
	c-0.3,0-0.6-0.2-0.6-0.6v-30.2c0-6,4.9-10.8,10.8-10.8c6,0,10.8,4.9,10.8,10.8v30.2C519.1,285.9,518.8,286.1,518.5,286.1z"/>
<path class="st1" d="M508.2,285.3c-0.3,0-0.6-0.2-0.6-0.6V245c0-0.3,0.2-0.6,0.6-0.6c0.3,0,0.6,0.2,0.6,0.6v39.7
	C508.8,285,508.6,285.3,508.2,285.3z"/>
<path class="st1" d="M501.7,285.3c-0.3,0-0.5-0.2-0.6-0.5c-0.1-1.3-2.3-32.7,3.6-39c0.7-0.8,1.6-1.2,2.5-1.2c0.3,0,0.6,0.2,0.6,0.6
	c0,0.3-0.2,0.6-0.6,0.6c-0.6,0-1.2,0.3-1.7,0.8c-2.3,2.4-3.5,9.8-3.7,21.3c-0.1,8.8,0.4,16.9,0.4,17
	C502.3,285,502,285.3,501.7,285.3C501.7,285.3,501.7,285.3,501.7,285.3z"/>
<path class="st1" d="M517.2,250.7c-0.2,0-0.3-0.1-0.4-0.2c-0.2-0.2-0.2-0.6,0.1-0.8l1.4-1.1c0.2-0.2,0.6-0.2,0.8,0.1
	c0.2,0.2,0.2,0.6-0.1,0.8l-1.4,1.1C517.4,250.7,517.3,250.7,517.2,250.7z"/>
<path class="st1" d="M520,257.9h-1.5c-0.3,0-0.6-0.2-0.6-0.6c0-0.3,0.2-0.6,0.6-0.6h1.5c0.3,0,0.6,0.2,0.6,0.6
	C520.6,257.7,520.3,257.9,520,257.9z"/>
<path class="st1" d="M518.6,267.9c-0.2,0-0.5-0.2-0.5-0.4c-0.1-0.3,0.1-0.6,0.4-0.7l1.4-0.4c0.3-0.1,0.6,0.1,0.7,0.4
	c0.1,0.3-0.1,0.6-0.4,0.7l-1.4,0.4C518.7,267.9,518.6,267.9,518.6,267.9z"/>
<path class="st1" d="M519.9,277.8c-0.1,0-0.2,0-0.3-0.1l-1.3-0.7c-0.3-0.1-0.4-0.5-0.2-0.7c0.1-0.3,0.5-0.4,0.7-0.2l1.3,0.7
	c0.3,0.1,0.4,0.5,0.2,0.7C520.3,277.7,520.2,277.8,519.9,277.8z"/>
<path class="st1" d="M499.4,250.7c-0.1,0-0.2,0-0.4-0.1l-1.4-1.1c-0.2-0.2-0.3-0.5-0.1-0.8c0.2-0.2,0.5-0.3,0.8-0.1l1.4,1.1
	c0.2,0.2,0.3,0.5,0.1,0.8C499.7,250.7,499.6,250.7,499.4,250.7z"/>
<path class="st1" d="M498,257.9h-1.5c-0.3,0-0.6-0.2-0.6-0.6c0-0.3,0.2-0.6,0.6-0.6h1.5c0.3,0,0.6,0.2,0.6,0.6
	C498.5,257.7,498.3,257.9,498,257.9z"/>
<path class="st1" d="M498,267.9c0,0-0.1,0-0.1,0l-1.4-0.4c-0.3-0.1-0.5-0.4-0.4-0.7s0.4-0.5,0.7-0.4l1.4,0.4
	c0.3,0.1,0.5,0.4,0.4,0.7C498.4,267.7,498.2,267.9,498,267.9z"/>
<path class="st1" d="M496.6,277.8c-0.2,0-0.4-0.1-0.5-0.3c-0.1-0.3,0-0.6,0.2-0.7l1.3-0.7c0.3-0.1,0.6,0,0.7,0.2
	c0.1,0.3,0,0.6-0.2,0.7l-1.3,0.7C496.8,277.8,496.7,277.8,496.6,277.8z"/>
<path class="st0" d="M504.2,289.9h-14v-20.6c0-3.9,3.1-7,7-7s7,3.1,7,7V289.9z"/>
<path class="st1" d="M490.7,289.3h12.9v-20c0-3.6-2.9-6.5-6.5-6.5c-3.6,0-6.5,2.9-6.5,6.5V289.3z M504.2,290.4h-14
	c-0.3,0-0.6-0.2-0.6-0.6v-20.6c0-4.2,3.4-7.6,7.6-7.6s7.6,3.4,7.6,7.6v20.6C504.8,290.2,504.5,290.4,504.2,290.4z"/>
<path class="st1" d="M497.2,289.8c-0.3,0-0.6-0.2-0.6-0.6v-27c0-0.3,0.2-0.6,0.6-0.6c0.3,0,0.6,0.2,0.6,0.6v27
	C497.8,289.6,497.5,289.8,497.2,289.8z"/>
<path class="st1" d="M492.7,289.8c-0.3,0-0.5-0.2-0.6-0.5c-0.1-0.9-1.6-22.4,2.5-26.7c0.5-0.6,1.2-0.9,1.8-0.9
	c0.3,0,0.6,0.2,0.6,0.6s-0.2,0.6-0.6,0.6c-0.4,0-0.7,0.2-1,0.5c-1.1,1.1-2.3,4.5-2.5,14.4c-0.1,6,0.3,11.5,0.3,11.5
	C493.3,289.6,493.1,289.8,492.7,289.8C492.8,289.8,492.7,289.8,492.7,289.8z"/>
<path class="st1" d="M503.3,266.3c-0.2,0-0.3-0.1-0.4-0.2c-0.2-0.2-0.2-0.6,0.1-0.8l1-0.8c0.2-0.2,0.6-0.2,0.8,0.1
	c0.2,0.2,0.2,0.6-0.1,0.8l-1,0.8C503.5,266.3,503.4,266.3,503.3,266.3z"/>
<path class="st1" d="M505.2,271.2h-1c-0.3,0-0.6-0.2-0.6-0.6c0-0.3,0.2-0.6,0.6-0.6h1c0.3,0,0.6,0.2,0.6,0.6
	C505.8,271,505.5,271.2,505.2,271.2z"/>
<path class="st1" d="M504.2,278c-0.2,0-0.5-0.2-0.5-0.4c-0.1-0.3,0.1-0.6,0.4-0.7l1-0.3c0.3-0.1,0.6,0.1,0.7,0.4s-0.1,0.6-0.4,0.7
	l-1,0.3C504.3,278,504.3,278,504.2,278z"/>
<path class="st1" d="M505.2,284.8c-0.1,0-0.2,0-0.3-0.1l-0.9-0.5c-0.3-0.1-0.4-0.5-0.2-0.7c0.1-0.3,0.5-0.4,0.7-0.2l0.9,0.5
	c0.3,0.1,0.4,0.5,0.2,0.7C505.6,284.7,505.4,284.8,505.2,284.8z"/>
<path class="st1" d="M491.2,266.3c-0.1,0-0.2,0-0.4-0.1l-1-0.8c-0.2-0.2-0.3-0.5-0.1-0.8c0.2-0.2,0.5-0.3,0.8-0.1l1,0.8
	c0.2,0.2,0.3,0.5,0.1,0.8C491.5,266.2,491.3,266.3,491.2,266.3z"/>
<path class="st1" d="M490.2,271.2h-1c-0.3,0-0.6-0.2-0.6-0.6c0-0.3,0.2-0.6,0.6-0.6h1c0.3,0,0.6,0.2,0.6,0.6
	C490.8,271,490.5,271.2,490.2,271.2z"/>
<path class="st1" d="M490.2,278c0,0-0.1,0-0.1,0l-1-0.3c-0.3-0.1-0.5-0.4-0.4-0.7c0.1-0.3,0.4-0.5,0.7-0.4l1,0.3
	c0.3,0.1,0.5,0.4,0.4,0.7C490.7,277.8,490.4,278,490.2,278z"/>
<path class="st1" d="M489.3,284.8c-0.2,0-0.4-0.1-0.5-0.3c-0.1-0.3,0-0.6,0.2-0.7l0.9-0.5c0.3-0.1,0.6,0,0.7,0.2
	c0.1,0.3,0,0.6-0.2,0.7l-0.9,0.5C489.4,284.8,489.3,284.8,489.3,284.8z"/>
<path class="st0" d="M525.7,315.4h-42.2l-3.3-28.7c0-4,3.8-7.3,8.4-7.3h31.9c4.6,0,8.4,3.3,8.4,7.3L525.7,315.4z"/>
<path class="st1" d="M484,314.8h41.2l3.2-28.2c0-3.7-3.5-6.7-7.8-6.7h-31.9c-4.3,0-7.8,3-7.8,6.7L484,314.8z M526.2,315.9H483
	l-3.3-29.3c0-4.3,4-7.9,8.9-7.9h31.9c4.9,0,8.9,3.5,8.9,7.9l0,0.1L526.2,315.9z"/>
<path class="st1" d="M480.9,292.5h47.4v-1.1h-47.4V292.5z"/>
<path class="st0" d="M554.3,315.4h-82.6v-3c0-3.4,2.8-6.2,6.2-6.2h76.4V315.4z"/>
<path class="st1" d="M472.3,314.8h81.4v-8.1h-75.8c-3.1,0-5.6,2.5-5.6,5.6V314.8z M554.8,315.9h-83.7v-3.6c0-3.7,3-6.7,6.7-6.7h76.9
	V315.9z"/>
<path class="st0" d="M568.4,310.8h-30.3v-78.7c0-3.6,2.9-6.4,6.4-6.4h23.8V310.8z"/>
<path class="st1" d="M538.7,310.2h29.1v-84h-23.3c-3.2,0-5.9,2.6-5.9,5.9V310.2z M568.9,311.3h-31.4v-79.3c0-3.9,3.1-7,7-7h24.4
	V311.3z"/>
<path class="st1" d="M559.8,309.1H542v-72.4c0-2.1,1.7-3.7,3.7-3.7H556c2.1,0,3.7,1.7,3.7,3.7V309.1z"/>
<path class="st0" d="M568.4,315.4c-2.5,0-4.5-2-4.5-4.5v-80.7c0-2.5,2-4.5,4.5-4.5c2.5,0,4.5,2,4.5,4.5v80.7
	C572.9,313.3,570.9,315.4,568.4,315.4z"/>
<path class="st1" d="M568.4,226.2c-2.2,0-4,1.8-4,4v80.7c0,2.2,1.8,4,4,4c2.2,0,4-1.8,4-4v-80.7C572.4,228,570.6,226.2,568.4,226.2z
	 M568.4,315.9c-2.8,0-5.1-2.3-5.1-5.1v-80.7c0-2.8,2.3-5.1,5.1-5.1s5.1,2.3,5.1,5.1v80.7C573.5,313.6,571.2,315.9,568.4,315.9z"/>
<path class="st0" d="M568.4,315.4h-82.6v-3c0-3.4,2.8-6.2,6.2-6.2h76.4V315.4z"/>
<path class="st1" d="M486.4,314.8h81.4v-8.1H492c-3.1,0-5.6,2.5-5.6,5.6V314.8z M568.9,315.9h-83.7v-3.6c0-3.7,3-6.7,6.7-6.7h76.9
	V315.9z"/>
<path class="st0" d="M572.9,310.7c0,2.5-2,4.5-4.5,4.5c-2.5,0-4.5-2-4.5-4.5c0-2.5,2-4.5,4.5-4.5
	C570.9,306.1,572.9,308.2,572.9,310.7z"/>
<path class="st1" d="M568.4,306.7c-2.2,0-4,1.8-4,4c0,2.2,1.8,4,4,4c2.2,0,4-1.8,4-4C572.4,308.5,570.6,306.7,568.4,306.7z
	 M568.4,315.8c-2.8,0-5.1-2.3-5.1-5.1c0-2.8,2.3-5.1,5.1-5.1s5.1,2.3,5.1,5.1C573.5,313.5,571.2,315.8,568.4,315.8z"/>
<path class="st0" d="M420.8,303.6c-5.6,0-10.1-4.5-10.1-10.1c0-5.6,4.5-10.1,10.1-10.1c5.6,0,10.1,4.5,10.1,10.1
	C430.9,299.1,426.4,303.6,420.8,303.6z M420.8,277c-9.1,0-16.5,7.4-16.5,16.5c0,9.1,7.4,16.5,16.5,16.5c9.1,0,16.5-7.4,16.5-16.5
	C437.3,284.4,429.9,277,420.8,277z"/>
<path class="st1" d="M420.8,284.1c-5.2,0-9.4,4.2-9.4,9.4c0,5.2,4.2,9.4,9.4,9.4c5.2,0,9.4-4.2,9.4-9.4
	C430.2,288.3,425.9,284.1,420.8,284.1z M420.8,304.4c-6,0-10.9-4.9-10.9-10.9c0-6,4.9-10.9,10.9-10.9c6,0,10.9,4.9,10.9,10.9
	C431.6,299.5,426.8,304.4,420.8,304.4z M420.8,277.7c-8.7,0-15.8,7.1-15.8,15.8c0,8.7,7.1,15.8,15.8,15.8c8.7,0,15.8-7.1,15.8-15.8
	C436.6,284.8,429.5,277.7,420.8,277.7z M420.8,310.8c-9.5,0-17.3-7.8-17.3-17.3c0-9.5,7.8-17.3,17.3-17.3c9.5,0,17.3,7.8,17.3,17.3
	C438.1,303,430.3,310.8,420.8,310.8z"/>
<path class="st0" d="M460.7,315.4h-40v-36.2c0-3.3,2.7-6,6-6h28c3.3,0,6,2.7,6,6V315.4z"/>
<path class="st1" d="M421.5,314.6H460v-35.5c0-2.9-2.3-5.2-5.2-5.2h-28c-2.9,0-5.2,2.4-5.2,5.2V314.6z M461.5,316.1H420v-36.9
	c0-3.7,3-6.7,6.7-6.7h28c3.7,0,6.7,3,6.7,6.7V316.1z"/>
<path class="st0" d="M600.7,302.5h9.9v-9.9h-9.9V302.5z"/>
<path class="st1" d="M601.4,301.8h8.5v-8.5h-8.5V301.8z M599.9,303.3h11.4v-11.4h-11.4V303.3z"/>
<path class="st0" d="M663.6,240.4c-2,2-5.2,2-7.1,0l-55.3-55.3c-2-2-2-5.2,0-7.1c2-2,5.2-2,7.1,0l55.3,55.3
	C665.5,235.3,665.5,238.5,663.6,240.4z"/>
<path class="st1" d="M604.7,177.3c-1.1,0-2.2,0.4-3,1.3c-0.8,0.8-1.3,1.9-1.3,3c0,1.1,0.4,2.2,1.3,3l55.3,55.3
	c1.7,1.7,4.4,1.7,6.1,0c1.7-1.7,1.7-4.4,0-6.1l-55.3-55.3C606.9,177.7,605.9,177.3,604.7,177.3z M660,242.7c-1.5,0-3-0.6-4.1-1.7
	l-55.3-55.3c-1.1-1.1-1.7-2.5-1.7-4.1c0-1.5,0.6-3,1.7-4.1c1.1-1.1,2.5-1.7,4.1-1.7c1.5,0,3,0.6,4.1,1.7l55.3,55.3
	c2.3,2.3,2.3,5.9,0,8.2C663,242.1,661.5,242.7,660,242.7z"/>
<path class="st0" d="M663.6,232.9c2,2,2,5.2,0,7.1l-55.3,55.3c-2,2-5.2,2-7.1,0c-2-2-2-5.2,0-7.1l55.3-55.3
	C658.4,230.9,661.6,230.9,663.6,232.9z"/>
<path class="st1" d="M660,232.2c-1.1,0-2.2,0.4-3,1.3l-55.3,55.3c-1.7,1.7-1.7,4.4,0,6.1c1.7,1.7,4.4,1.7,6.1,0l55.3-55.3
	c1.7-1.7,1.7-4.4,0-6.1C662.2,232.6,661.1,232.2,660,232.2z M604.7,297.5c-1.5,0-3-0.6-4.1-1.7c-2.3-2.3-2.3-5.9,0-8.2l55.3-55.3
	c2.3-2.3,5.9-2.3,8.2,0c2.3,2.3,2.3,5.9,0,8.2l-55.3,55.3C607.7,297,606.2,297.5,604.7,297.5z"/>
<path class="st4" d="M590.3,209.5c-5.1,5.1-13.5,5.1-18.6,0c-5.1-5.1-5.1-13.5,0-18.6c5.1-5.1,13.5-5.1,18.6,0
	C595.5,196.1,595.5,204.4,590.3,209.5z"/>
<path class="st0" d="M606.6,175.2H556l50.1,50.1L606.6,175.2z"/>
<path class="st1" d="M557.8,175.9l47.6,47.6l0.5-47.6H557.8z M606.1,226c-0.2,0-0.4-0.1-0.5-0.2l-50.1-50.1
	c-0.2-0.2-0.3-0.5-0.2-0.8c0.1-0.3,0.4-0.5,0.7-0.5h50.6c0.2,0,0.4,0.1,0.5,0.2c0.1,0.1,0.2,0.3,0.2,0.5l-0.5,50.1
	c0,0.3-0.2,0.6-0.5,0.7C606.3,226,606.2,226,606.1,226z"/>
<path class="st0" d="M609.1,178l-5.3-5.3c-0.9-0.9-0.9-2.3,0-3.2l5.3-5.3c0.9-0.9,2.3-0.9,3.2,0l5.3,5.3c0.9,0.9,0.9,2.3,0,3.2
	l-5.3,5.3C611.4,178.9,610,178.9,609.1,178z"/>
<path class="st1" d="M609.6,177.5c0.6,0.6,1.5,0.6,2.1,0l5.3-5.3c0.6-0.6,0.6-1.5,0-2.1l-5.3-5.3c-0.6-0.6-1.5-0.6-2.1,0l-5.3,5.3
	c-0.6,0.6-0.6,1.5,0,2.1L609.6,177.5z M610.7,179.4c-0.8,0-1.5-0.3-2.1-0.9l-5.3-5.3c-1.2-1.2-1.2-3.1,0-4.2l5.3-5.3
	c1.2-1.2,3.1-1.2,4.2,0l5.3,5.3c1.2,1.2,1.2,3.1,0,4.2l-5.3,5.3C612.2,179.1,611.5,179.4,610.7,179.4z"/>
<path class="st0" d="M606.3,297.4h-0.5c-3.4,0-6.1-2.7-6.1-6.1v-0.5c0-3.4,2.7-6.1,6.1-6.1h0.5c3.4,0,6.1,2.7,6.1,6.1v0.5
	C612.4,294.7,609.7,297.4,606.3,297.4z"/>
<path class="st1" d="M605.8,285.5c-3,0-5.3,2.4-5.3,5.3v0.5c0,2.9,2.4,5.3,5.3,5.3h0.5c2.9,0,5.3-2.4,5.3-5.3v-0.5
	c0-2.9-2.4-5.3-5.3-5.3H605.8z M606.3,298.1h-0.5c-3.8,0-6.8-3.1-6.8-6.8v-0.5c0-3.8,3.1-6.8,6.8-6.8h0.5c3.8,0,6.8,3.1,6.8,6.8v0.5
	C613.1,295.1,610.1,298.1,606.3,298.1z"/>
<path class="st0" d="M579.6,315.2c0-14.2,11.5-14.5,25.7-14.5c14.2,0,25.7,0.4,25.7,14.5H579.6z"/>
<path class="st1" d="M580.4,314.5h49.8c-0.4-12.2-9.7-13-24.9-13C590.1,301.5,580.7,302.3,580.4,314.5z M631.7,316h-52.8v-0.7
	c0-6.8,2.6-11.1,8-13.3c4.6-1.9,10.8-2,18.4-2c7.6,0,13.8,0.1,18.4,2c5.4,2.2,8,6.5,8,13.3V316z"/>
</svg>
